<svg xmlns="http://www.w3.org/2000/svg" viewBox="0 0 1200 800" width="1200" height="800" role="img">
  <g stroke="#E7E7E2" stroke-width="1"><line x1="48" y1="0" x2="48" y2="800"/><line x1="96" y1="0" x2="96" y2="800"/><line x1="144" y1="0" x2="144" y2="800"/><line x1="192" y1="0" x2="192" y2="800"/><line x1="240" y1="0" x2="240" y2="800"/><line x1="288" y1="0" x2="288" y2="800"/><line x1="336" y1="0" x2="336" y2="800"/><line x1="384" y1="0" x2="384" y2="800"/><line x1="432" y1="0" x2="432" y2="800"/><line x1="480" y1="0" x2="480" y2="800"/><line x1="528" y1="0" x2="528" y2="800"/><line x1="576" y1="0" x2="576" y2="800"/><line x1="624" y1="0" x2="624" y2="800"/><line x1="672" y1="0" x2="672" y2="800"/><line x1="720" y1="0" x2="720" y2="800"/><line x1="768" y1="0" x2="768" y2="800"/><line x1="816" y1="0" x2="816" y2="800"/><line x1="864" y1="0" x2="864" y2="800"/><line x1="912" y1="0" x2="912" y2="800"/><line x1="960" y1="0" x2="960" y2="800"/><line x1="1008" y1="0" x2="1008" y2="800"/><line x1="1056" y1="0" x2="1056" y2="800"/><line x1="1104" y1="0" x2="1104" y2="800"/><line x1="1152" y1="0" x2="1152" y2="800"/><line x1="0" y1="48" x2="1200" y2="48"/><line x1="0" y1="96" x2="1200" y2="96"/><line x1="0" y1="144" x2="1200" y2="144"/><line x1="0" y1="192" x2="1200" y2="192"/><line x1="0" y1="240" x2="1200" y2="240"/><line x1="0" y1="288" x2="1200" y2="288"/><line x1="0" y1="336" x2="1200" y2="336"/><line x1="0" y1="384" x2="1200" y2="384"/><line x1="0" y1="432" x2="1200" y2="432"/><line x1="0" y1="480" x2="1200" y2="480"/><line x1="0" y1="528" x2="1200" y2="528"/><line x1="0" y1="576" x2="1200" y2="576"/><line x1="0" y1="624" x2="1200" y2="624"/><line x1="0" y1="672" x2="1200" y2="672"/><line x1="0" y1="720" x2="1200" y2="720"/><line x1="0" y1="768" x2="1200" y2="768"/></g><g stroke="#2E3A87" stroke-opacity="0.18" stroke-width="1"><path d="M45 48 H51 M48 45 V51"/><path d="M45 96 H51 M48 93 V99"/><path d="M45 144 H51 M48 141 V147"/><path d="M45 192 H51 M48 189 V195"/><path d="M45 240 H51 M48 237 V243"/><path d="M45 288 H51 M48 285 V291"/><path d="M45 336 H51 M48 333 V339"/><path d="M45 384 H51 M48 381 V387"/><path d="M45 432 H51 M48 429 V435"/><path d="M45 480 H51 M48 477 V483"/><path d="M45 528 H51 M48 525 V531"/><path d="M45 576 H51 M48 573 V579"/><path d="M45 624 H51 M48 621 V627"/><path d="M45 672 H51 M48 669 V675"/><path d="M45 720 H51 M48 717 V723"/><path d="M45 768 H51 M48 765 V771"/><path d="M93 48 H99 M96 45 V51"/><path d="M93 96 H99 M96 93 V99"/><path d="M93 144 H99 M96 141 V147"/><path d="M93 192 H99 M96 189 V195"/><path d="M93 240 H99 M96 237 V243"/><path d="M93 288 H99 M96 285 V291"/><path d="M93 336 H99 M96 333 V339"/><path d="M93 384 H99 M96 381 V387"/><path d="M93 432 H99 M96 429 V435"/><path d="M93 480 H99 M96 477 V483"/><path d="M93 528 H99 M96 525 V531"/><path d="M93 576 H99 M96 573 V579"/><path d="M93 624 H99 M96 621 V627"/><path d="M93 672 H99 M96 669 V675"/><path d="M93 720 H99 M96 717 V723"/><path d="M93 768 H99 M96 765 V771"/><path d="M141 48 H147 M144 45 V51"/><path d="M141 96 H147 M144 93 V99"/><path d="M141 144 H147 M144 141 V147"/><path d="M141 192 H147 M144 189 V195"/><path d="M141 240 H147 M144 237 V243"/><path d="M141 288 H147 M144 285 V291"/><path d="M141 336 H147 M144 333 V339"/><path d="M141 384 H147 M144 381 V387"/><path d="M141 432 H147 M144 429 V435"/><path d="M141 480 H147 M144 477 V483"/><path d="M141 528 H147 M144 525 V531"/><path d="M141 576 H147 M144 573 V579"/><path d="M141 624 H147 M144 621 V627"/><path d="M141 672 H147 M144 669 V675"/><path d="M141 720 H147 M144 717 V723"/><path d="M141 768 H147 M144 765 V771"/><path d="M189 48 H195 M192 45 V51"/><path d="M189 96 H195 M192 93 V99"/><path d="M189 144 H195 M192 141 V147"/><path d="M189 192 H195 M192 189 V195"/><path d="M189 240 H195 M192 237 V243"/><path d="M189 288 H195 M192 285 V291"/><path d="M189 336 H195 M192 333 V339"/><path d="M189 384 H195 M192 381 V387"/><path d="M189 432 H195 M192 429 V435"/><path d="M189 480 H195 M192 477 V483"/><path d="M189 528 H195 M192 525 V531"/><path d="M189 576 H195 M192 573 V579"/><path d="M189 624 H195 M192 621 V627"/><path d="M189 672 H195 M192 669 V675"/><path d="M189 720 H195 M192 717 V723"/><path d="M189 768 H195 M192 765 V771"/><path d="M237 48 H243 M240 45 V51"/><path d="M237 96 H243 M240 93 V99"/><path d="M237 144 H243 M240 141 V147"/><path d="M237 192 H243 M240 189 V195"/><path d="M237 240 H243 M240 237 V243"/><path d="M237 288 H243 M240 285 V291"/><path d="M237 336 H243 M240 333 V339"/><path d="M237 384 H243 M240 381 V387"/><path d="M237 432 H243 M240 429 V435"/><path d="M237 480 H243 M240 477 V483"/><path d="M237 528 H243 M240 525 V531"/><path d="M237 576 H243 M240 573 V579"/><path d="M237 624 H243 M240 621 V627"/><path d="M237 672 H243 M240 669 V675"/><path d="M237 720 H243 M240 717 V723"/><path d="M237 768 H243 M240 765 V771"/><path d="M285 48 H291 M288 45 V51"/><path d="M285 96 H291 M288 93 V99"/><path d="M285 144 H291 M288 141 V147"/><path d="M285 192 H291 M288 189 V195"/><path d="M285 240 H291 M288 237 V243"/><path d="M285 288 H291 M288 285 V291"/><path d="M285 336 H291 M288 333 V339"/><path d="M285 384 H291 M288 381 V387"/><path d="M285 432 H291 M288 429 V435"/><path d="M285 480 H291 M288 477 V483"/><path d="M285 528 H291 M288 525 V531"/><path d="M285 576 H291 M288 573 V579"/><path d="M285 624 H291 M288 621 V627"/><path d="M285 672 H291 M288 669 V675"/><path d="M285 720 H291 M288 717 V723"/><path d="M285 768 H291 M288 765 V771"/><path d="M333 48 H339 M336 45 V51"/><path d="M333 96 H339 M336 93 V99"/><path d="M333 144 H339 M336 141 V147"/><path d="M333 192 H339 M336 189 V195"/><path d="M333 240 H339 M336 237 V243"/><path d="M333 288 H339 M336 285 V291"/><path d="M333 336 H339 M336 333 V339"/><path d="M333 384 H339 M336 381 V387"/><path d="M333 432 H339 M336 429 V435"/><path d="M333 480 H339 M336 477 V483"/><path d="M333 528 H339 M336 525 V531"/><path d="M333 576 H339 M336 573 V579"/><path d="M333 624 H339 M336 621 V627"/><path d="M333 672 H339 M336 669 V675"/><path d="M333 720 H339 M336 717 V723"/><path d="M333 768 H339 M336 765 V771"/><path d="M381 48 H387 M384 45 V51"/><path d="M381 96 H387 M384 93 V99"/><path d="M381 144 H387 M384 141 V147"/><path d="M381 192 H387 M384 189 V195"/><path d="M381 240 H387 M384 237 V243"/><path d="M381 288 H387 M384 285 V291"/><path d="M381 336 H387 M384 333 V339"/><path d="M381 384 H387 M384 381 V387"/><path d="M381 432 H387 M384 429 V435"/><path d="M381 480 H387 M384 477 V483"/><path d="M381 528 H387 M384 525 V531"/><path d="M381 576 H387 M384 573 V579"/><path d="M381 624 H387 M384 621 V627"/><path d="M381 672 H387 M384 669 V675"/><path d="M381 720 H387 M384 717 V723"/><path d="M381 768 H387 M384 765 V771"/><path d="M429 48 H435 M432 45 V51"/><path d="M429 96 H435 M432 93 V99"/><path d="M429 144 H435 M432 141 V147"/><path d="M429 192 H435 M432 189 V195"/><path d="M429 240 H435 M432 237 V243"/><path d="M429 288 H435 M432 285 V291"/><path d="M429 336 H435 M432 333 V339"/><path d="M429 384 H435 M432 381 V387"/><path d="M429 432 H435 M432 429 V435"/><path d="M429 480 H435 M432 477 V483"/><path d="M429 528 H435 M432 525 V531"/><path d="M429 576 H435 M432 573 V579"/><path d="M429 624 H435 M432 621 V627"/><path d="M429 672 H435 M432 669 V675"/><path d="M429 720 H435 M432 717 V723"/><path d="M429 768 H435 M432 765 V771"/><path d="M477 48 H483 M480 45 V51"/><path d="M477 96 H483 M480 93 V99"/><path d="M477 144 H483 M480 141 V147"/><path d="M477 192 H483 M480 189 V195"/><path d="M477 240 H483 M480 237 V243"/><path d="M477 288 H483 M480 285 V291"/><path d="M477 336 H483 M480 333 V339"/><path d="M477 384 H483 M480 381 V387"/><path d="M477 432 H483 M480 429 V435"/><path d="M477 480 H483 M480 477 V483"/><path d="M477 528 H483 M480 525 V531"/><path d="M477 576 H483 M480 573 V579"/><path d="M477 624 H483 M480 621 V627"/><path d="M477 672 H483 M480 669 V675"/><path d="M477 720 H483 M480 717 V723"/><path d="M477 768 H483 M480 765 V771"/><path d="M525 48 H531 M528 45 V51"/><path d="M525 96 H531 M528 93 V99"/><path d="M525 144 H531 M528 141 V147"/><path d="M525 192 H531 M528 189 V195"/><path d="M525 240 H531 M528 237 V243"/><path d="M525 288 H531 M528 285 V291"/><path d="M525 336 H531 M528 333 V339"/><path d="M525 384 H531 M528 381 V387"/><path d="M525 432 H531 M528 429 V435"/><path d="M525 480 H531 M528 477 V483"/><path d="M525 528 H531 M528 525 V531"/><path d="M525 576 H531 M528 573 V579"/><path d="M525 624 H531 M528 621 V627"/><path d="M525 672 H531 M528 669 V675"/><path d="M525 720 H531 M528 717 V723"/><path d="M525 768 H531 M528 765 V771"/><path d="M573 48 H579 M576 45 V51"/><path d="M573 96 H579 M576 93 V99"/><path d="M573 144 H579 M576 141 V147"/><path d="M573 192 H579 M576 189 V195"/><path d="M573 240 H579 M576 237 V243"/><path d="M573 288 H579 M576 285 V291"/><path d="M573 336 H579 M576 333 V339"/><path d="M573 384 H579 M576 381 V387"/><path d="M573 432 H579 M576 429 V435"/><path d="M573 480 H579 M576 477 V483"/><path d="M573 528 H579 M576 525 V531"/><path d="M573 576 H579 M576 573 V579"/><path d="M573 624 H579 M576 621 V627"/><path d="M573 672 H579 M576 669 V675"/><path d="M573 720 H579 M576 717 V723"/><path d="M573 768 H579 M576 765 V771"/><path d="M621 48 H627 M624 45 V51"/><path d="M621 96 H627 M624 93 V99"/><path d="M621 144 H627 M624 141 V147"/><path d="M621 192 H627 M624 189 V195"/><path d="M621 240 H627 M624 237 V243"/><path d="M621 288 H627 M624 285 V291"/><path d="M621 336 H627 M624 333 V339"/><path d="M621 384 H627 M624 381 V387"/><path d="M621 432 H627 M624 429 V435"/><path d="M621 480 H627 M624 477 V483"/><path d="M621 528 H627 M624 525 V531"/><path d="M621 576 H627 M624 573 V579"/><path d="M621 624 H627 M624 621 V627"/><path d="M621 672 H627 M624 669 V675"/><path d="M621 720 H627 M624 717 V723"/><path d="M621 768 H627 M624 765 V771"/><path d="M669 48 H675 M672 45 V51"/><path d="M669 96 H675 M672 93 V99"/><path d="M669 144 H675 M672 141 V147"/><path d="M669 192 H675 M672 189 V195"/><path d="M669 240 H675 M672 237 V243"/><path d="M669 288 H675 M672 285 V291"/><path d="M669 336 H675 M672 333 V339"/><path d="M669 384 H675 M672 381 V387"/><path d="M669 432 H675 M672 429 V435"/><path d="M669 480 H675 M672 477 V483"/><path d="M669 528 H675 M672 525 V531"/><path d="M669 576 H675 M672 573 V579"/><path d="M669 624 H675 M672 621 V627"/><path d="M669 672 H675 M672 669 V675"/><path d="M669 720 H675 M672 717 V723"/><path d="M669 768 H675 M672 765 V771"/><path d="M717 48 H723 M720 45 V51"/><path d="M717 96 H723 M720 93 V99"/><path d="M717 144 H723 M720 141 V147"/><path d="M717 192 H723 M720 189 V195"/><path d="M717 240 H723 M720 237 V243"/><path d="M717 288 H723 M720 285 V291"/><path d="M717 336 H723 M720 333 V339"/><path d="M717 384 H723 M720 381 V387"/><path d="M717 432 H723 M720 429 V435"/><path d="M717 480 H723 M720 477 V483"/><path d="M717 528 H723 M720 525 V531"/><path d="M717 576 H723 M720 573 V579"/><path d="M717 624 H723 M720 621 V627"/><path d="M717 672 H723 M720 669 V675"/><path d="M717 720 H723 M720 717 V723"/><path d="M717 768 H723 M720 765 V771"/><path d="M765 48 H771 M768 45 V51"/><path d="M765 96 H771 M768 93 V99"/><path d="M765 144 H771 M768 141 V147"/><path d="M765 192 H771 M768 189 V195"/><path d="M765 240 H771 M768 237 V243"/><path d="M765 288 H771 M768 285 V291"/><path d="M765 336 H771 M768 333 V339"/><path d="M765 384 H771 M768 381 V387"/><path d="M765 432 H771 M768 429 V435"/><path d="M765 480 H771 M768 477 V483"/><path d="M765 528 H771 M768 525 V531"/><path d="M765 576 H771 M768 573 V579"/><path d="M765 624 H771 M768 621 V627"/><path d="M765 672 H771 M768 669 V675"/><path d="M765 720 H771 M768 717 V723"/><path d="M765 768 H771 M768 765 V771"/><path d="M813 48 H819 M816 45 V51"/><path d="M813 96 H819 M816 93 V99"/><path d="M813 144 H819 M816 141 V147"/><path d="M813 192 H819 M816 189 V195"/><path d="M813 240 H819 M816 237 V243"/><path d="M813 288 H819 M816 285 V291"/><path d="M813 336 H819 M816 333 V339"/><path d="M813 384 H819 M816 381 V387"/><path d="M813 432 H819 M816 429 V435"/><path d="M813 480 H819 M816 477 V483"/><path d="M813 528 H819 M816 525 V531"/><path d="M813 576 H819 M816 573 V579"/><path d="M813 624 H819 M816 621 V627"/><path d="M813 672 H819 M816 669 V675"/><path d="M813 720 H819 M816 717 V723"/><path d="M813 768 H819 M816 765 V771"/><path d="M861 48 H867 M864 45 V51"/><path d="M861 96 H867 M864 93 V99"/><path d="M861 144 H867 M864 141 V147"/><path d="M861 192 H867 M864 189 V195"/><path d="M861 240 H867 M864 237 V243"/><path d="M861 288 H867 M864 285 V291"/><path d="M861 336 H867 M864 333 V339"/><path d="M861 384 H867 M864 381 V387"/><path d="M861 432 H867 M864 429 V435"/><path d="M861 480 H867 M864 477 V483"/><path d="M861 528 H867 M864 525 V531"/><path d="M861 576 H867 M864 573 V579"/><path d="M861 624 H867 M864 621 V627"/><path d="M861 672 H867 M864 669 V675"/><path d="M861 720 H867 M864 717 V723"/><path d="M861 768 H867 M864 765 V771"/><path d="M909 48 H915 M912 45 V51"/><path d="M909 96 H915 M912 93 V99"/><path d="M909 144 H915 M912 141 V147"/><path d="M909 192 H915 M912 189 V195"/><path d="M909 240 H915 M912 237 V243"/><path d="M909 288 H915 M912 285 V291"/><path d="M909 336 H915 M912 333 V339"/><path d="M909 384 H915 M912 381 V387"/><path d="M909 432 H915 M912 429 V435"/><path d="M909 480 H915 M912 477 V483"/><path d="M909 528 H915 M912 525 V531"/><path d="M909 576 H915 M912 573 V579"/><path d="M909 624 H915 M912 621 V627"/><path d="M909 672 H915 M912 669 V675"/><path d="M909 720 H915 M912 717 V723"/><path d="M909 768 H915 M912 765 V771"/><path d="M957 48 H963 M960 45 V51"/><path d="M957 96 H963 M960 93 V99"/><path d="M957 144 H963 M960 141 V147"/><path d="M957 192 H963 M960 189 V195"/><path d="M957 240 H963 M960 237 V243"/><path d="M957 288 H963 M960 285 V291"/><path d="M957 336 H963 M960 333 V339"/><path d="M957 384 H963 M960 381 V387"/><path d="M957 432 H963 M960 429 V435"/><path d="M957 480 H963 M960 477 V483"/><path d="M957 528 H963 M960 525 V531"/><path d="M957 576 H963 M960 573 V579"/><path d="M957 624 H963 M960 621 V627"/><path d="M957 672 H963 M960 669 V675"/><path d="M957 720 H963 M960 717 V723"/><path d="M957 768 H963 M960 765 V771"/><path d="M1005 48 H1011 M1008 45 V51"/><path d="M1005 96 H1011 M1008 93 V99"/><path d="M1005 144 H1011 M1008 141 V147"/><path d="M1005 192 H1011 M1008 189 V195"/><path d="M1005 240 H1011 M1008 237 V243"/><path d="M1005 288 H1011 M1008 285 V291"/><path d="M1005 336 H1011 M1008 333 V339"/><path d="M1005 384 H1011 M1008 381 V387"/><path d="M1005 432 H1011 M1008 429 V435"/><path d="M1005 480 H1011 M1008 477 V483"/><path d="M1005 528 H1011 M1008 525 V531"/><path d="M1005 576 H1011 M1008 573 V579"/><path d="M1005 624 H1011 M1008 621 V627"/><path d="M1005 672 H1011 M1008 669 V675"/><path d="M1005 720 H1011 M1008 717 V723"/><path d="M1005 768 H1011 M1008 765 V771"/><path d="M1053 48 H1059 M1056 45 V51"/><path d="M1053 96 H1059 M1056 93 V99"/><path d="M1053 144 H1059 M1056 141 V147"/><path d="M1053 192 H1059 M1056 189 V195"/><path d="M1053 240 H1059 M1056 237 V243"/><path d="M1053 288 H1059 M1056 285 V291"/><path d="M1053 336 H1059 M1056 333 V339"/><path d="M1053 384 H1059 M1056 381 V387"/><path d="M1053 432 H1059 M1056 429 V435"/><path d="M1053 480 H1059 M1056 477 V483"/><path d="M1053 528 H1059 M1056 525 V531"/><path d="M1053 576 H1059 M1056 573 V579"/><path d="M1053 624 H1059 M1056 621 V627"/><path d="M1053 672 H1059 M1056 669 V675"/><path d="M1053 720 H1059 M1056 717 V723"/><path d="M1053 768 H1059 M1056 765 V771"/><path d="M1101 48 H1107 M1104 45 V51"/><path d="M1101 96 H1107 M1104 93 V99"/><path d="M1101 144 H1107 M1104 141 V147"/><path d="M1101 192 H1107 M1104 189 V195"/><path d="M1101 240 H1107 M1104 237 V243"/><path d="M1101 288 H1107 M1104 285 V291"/><path d="M1101 336 H1107 M1104 333 V339"/><path d="M1101 384 H1107 M1104 381 V387"/><path d="M1101 432 H1107 M1104 429 V435"/><path d="M1101 480 H1107 M1104 477 V483"/><path d="M1101 528 H1107 M1104 525 V531"/><path d="M1101 576 H1107 M1104 573 V579"/><path d="M1101 624 H1107 M1104 621 V627"/><path d="M1101 672 H1107 M1104 669 V675"/><path d="M1101 720 H1107 M1104 717 V723"/><path d="M1101 768 H1107 M1104 765 V771"/><path d="M1149 48 H1155 M1152 45 V51"/><path d="M1149 96 H1155 M1152 93 V99"/><path d="M1149 144 H1155 M1152 141 V147"/><path d="M1149 192 H1155 M1152 189 V195"/><path d="M1149 240 H1155 M1152 237 V243"/><path d="M1149 288 H1155 M1152 285 V291"/><path d="M1149 336 H1155 M1152 333 V339"/><path d="M1149 384 H1155 M1152 381 V387"/><path d="M1149 432 H1155 M1152 429 V435"/><path d="M1149 480 H1155 M1152 477 V483"/><path d="M1149 528 H1155 M1152 525 V531"/><path d="M1149 576 H1155 M1152 573 V579"/><path d="M1149 624 H1155 M1152 621 V627"/><path d="M1149 672 H1155 M1152 669 V675"/><path d="M1149 720 H1155 M1152 717 V723"/><path d="M1149 768 H1155 M1152 765 V771"/></g>
  <polyline points="0.0,652.7 20.0,652.1 40.0,651.4 60.0,650.6 80.0,649.6 100.0,648.4 120.0,647.1 140.0,645.5 160.0,643.6 180.0,641.5 200.0,638.9 220.0,635.9 240.0,632.5 260.0,628.4 280.0,623.8 300.0,618.4 320.0,612.2 340.0,605.0 360.0,596.9 380.0,587.6 400.0,577.2 420.0,565.5 440.0,552.5 460.0,538.2 480.0,522.6 500.0,505.7 520.0,487.7 540.0,468.7 560.0,449.0 580.0,428.6 600.0,408.0 620.0,387.4 640.0,367.0 660.0,347.3 680.0,328.3 700.0,310.3 720.0,293.4 740.0,277.8 760.0,263.5 780.0,250.5 800.0,238.8 820.0,228.4 840.0,219.1 860.0,211.0 880.0,203.8 900.0,197.6 920.0,192.2 940.0,187.6 960.0,183.5 980.0,180.1 1000.0,177.1 1020.0,174.5 1040.0,172.4 1060.0,170.5 1080.0,168.9 1100.0,167.6 1120.0,166.4 1140.0,165.4 1160.0,164.6 1180.0,163.9 1200.0,163.3" fill="none" stroke="#2E3A87" stroke-width="3" stroke-linecap="round" stroke-linejoin="round"/>
  <text x="56" y="744" font-family="ui-monospace, 'SF Mono', Menlo, monospace" font-size="26" letter-spacing="3" fill="#5B6472">BOOK</text>
</svg>