<svg xmlns="http://www.w3.org/2000/svg" viewBox="0 0 900 1100" width="900" height="1100" role="img">
  <g stroke="#E7E7E2" stroke-width="1"><line x1="50" y1="0" x2="50" y2="1100"/><line x1="100" y1="0" x2="100" y2="1100"/><line x1="150" y1="0" x2="150" y2="1100"/><line x1="200" y1="0" x2="200" y2="1100"/><line x1="250" y1="0" x2="250" y2="1100"/><line x1="300" y1="0" x2="300" y2="1100"/><line x1="350" y1="0" x2="350" y2="1100"/><line x1="400" y1="0" x2="400" y2="1100"/><line x1="450" y1="0" x2="450" y2="1100"/><line x1="500" y1="0" x2="500" y2="1100"/><line x1="550" y1="0" x2="550" y2="1100"/><line x1="600" y1="0" x2="600" y2="1100"/><line x1="650" y1="0" x2="650" y2="1100"/><line x1="700" y1="0" x2="700" y2="1100"/><line x1="750" y1="0" x2="750" y2="1100"/><line x1="800" y1="0" x2="800" y2="1100"/><line x1="850" y1="0" x2="850" y2="1100"/><line x1="0" y1="50" x2="900" y2="50"/><line x1="0" y1="100" x2="900" y2="100"/><line x1="0" y1="150" x2="900" y2="150"/><line x1="0" y1="200" x2="900" y2="200"/><line x1="0" y1="250" x2="900" y2="250"/><line x1="0" y1="300" x2="900" y2="300"/><line x1="0" y1="350" x2="900" y2="350"/><line x1="0" y1="400" x2="900" y2="400"/><line x1="0" y1="450" x2="900" y2="450"/><line x1="0" y1="500" x2="900" y2="500"/><line x1="0" y1="550" x2="900" y2="550"/><line x1="0" y1="600" x2="900" y2="600"/><line x1="0" y1="650" x2="900" y2="650"/><line x1="0" y1="700" x2="900" y2="700"/><line x1="0" y1="750" x2="900" y2="750"/><line x1="0" y1="800" x2="900" y2="800"/><line x1="0" y1="850" x2="900" y2="850"/><line x1="0" y1="900" x2="900" y2="900"/><line x1="0" y1="950" x2="900" y2="950"/><line x1="0" y1="1000" x2="900" y2="1000"/><line x1="0" y1="1050" x2="900" y2="1050"/></g><g stroke="#2E3A87" stroke-opacity="0.18" stroke-width="1"><path d="M47 50 H53 M50 47 V53"/><path d="M47 100 H53 M50 97 V103"/><path d="M47 150 H53 M50 147 V153"/><path d="M47 200 H53 M50 197 V203"/><path d="M47 250 H53 M50 247 V253"/><path d="M47 300 H53 M50 297 V303"/><path d="M47 350 H53 M50 347 V353"/><path d="M47 400 H53 M50 397 V403"/><path d="M47 450 H53 M50 447 V453"/><path d="M47 500 H53 M50 497 V503"/><path d="M47 550 H53 M50 547 V553"/><path d="M47 600 H53 M50 597 V603"/><path d="M47 650 H53 M50 647 V653"/><path d="M47 700 H53 M50 697 V703"/><path d="M47 750 H53 M50 747 V753"/><path d="M47 800 H53 M50 797 V803"/><path d="M47 850 H53 M50 847 V853"/><path d="M47 900 H53 M50 897 V903"/><path d="M47 950 H53 M50 947 V953"/><path d="M47 1000 H53 M50 997 V1003"/><path d="M47 1050 H53 M50 1047 V1053"/><path d="M97 50 H103 M100 47 V53"/><path d="M97 100 H103 M100 97 V103"/><path d="M97 150 H103 M100 147 V153"/><path d="M97 200 H103 M100 197 V203"/><path d="M97 250 H103 M100 247 V253"/><path d="M97 300 H103 M100 297 V303"/><path d="M97 350 H103 M100 347 V353"/><path d="M97 400 H103 M100 397 V403"/><path d="M97 450 H103 M100 447 V453"/><path d="M97 500 H103 M100 497 V503"/><path d="M97 550 H103 M100 547 V553"/><path d="M97 600 H103 M100 597 V603"/><path d="M97 650 H103 M100 647 V653"/><path d="M97 700 H103 M100 697 V703"/><path d="M97 750 H103 M100 747 V753"/><path d="M97 800 H103 M100 797 V803"/><path d="M97 850 H103 M100 847 V853"/><path d="M97 900 H103 M100 897 V903"/><path d="M97 950 H103 M100 947 V953"/><path d="M97 1000 H103 M100 997 V1003"/><path d="M97 1050 H103 M100 1047 V1053"/><path d="M147 50 H153 M150 47 V53"/><path d="M147 100 H153 M150 97 V103"/><path d="M147 150 H153 M150 147 V153"/><path d="M147 200 H153 M150 197 V203"/><path d="M147 250 H153 M150 247 V253"/><path d="M147 300 H153 M150 297 V303"/><path d="M147 350 H153 M150 347 V353"/><path d="M147 400 H153 M150 397 V403"/><path d="M147 450 H153 M150 447 V453"/><path d="M147 500 H153 M150 497 V503"/><path d="M147 550 H153 M150 547 V553"/><path d="M147 600 H153 M150 597 V603"/><path d="M147 650 H153 M150 647 V653"/><path d="M147 700 H153 M150 697 V703"/><path d="M147 750 H153 M150 747 V753"/><path d="M147 800 H153 M150 797 V803"/><path d="M147 850 H153 M150 847 V853"/><path d="M147 900 H153 M150 897 V903"/><path d="M147 950 H153 M150 947 V953"/><path d="M147 1000 H153 M150 997 V1003"/><path d="M147 1050 H153 M150 1047 V1053"/><path d="M197 50 H203 M200 47 V53"/><path d="M197 100 H203 M200 97 V103"/><path d="M197 150 H203 M200 147 V153"/><path d="M197 200 H203 M200 197 V203"/><path d="M197 250 H203 M200 247 V253"/><path d="M197 300 H203 M200 297 V303"/><path d="M197 350 H203 M200 347 V353"/><path d="M197 400 H203 M200 397 V403"/><path d="M197 450 H203 M200 447 V453"/><path d="M197 500 H203 M200 497 V503"/><path d="M197 550 H203 M200 547 V553"/><path d="M197 600 H203 M200 597 V603"/><path d="M197 650 H203 M200 647 V653"/><path d="M197 700 H203 M200 697 V703"/><path d="M197 750 H203 M200 747 V753"/><path d="M197 800 H203 M200 797 V803"/><path d="M197 850 H203 M200 847 V853"/><path d="M197 900 H203 M200 897 V903"/><path d="M197 950 H203 M200 947 V953"/><path d="M197 1000 H203 M200 997 V1003"/><path d="M197 1050 H203 M200 1047 V1053"/><path d="M247 50 H253 M250 47 V53"/><path d="M247 100 H253 M250 97 V103"/><path d="M247 150 H253 M250 147 V153"/><path d="M247 200 H253 M250 197 V203"/><path d="M247 250 H253 M250 247 V253"/><path d="M247 300 H253 M250 297 V303"/><path d="M247 350 H253 M250 347 V353"/><path d="M247 400 H253 M250 397 V403"/><path d="M247 450 H253 M250 447 V453"/><path d="M247 500 H253 M250 497 V503"/><path d="M247 550 H253 M250 547 V553"/><path d="M247 600 H253 M250 597 V603"/><path d="M247 650 H253 M250 647 V653"/><path d="M247 700 H253 M250 697 V703"/><path d="M247 750 H253 M250 747 V753"/><path d="M247 800 H253 M250 797 V803"/><path d="M247 850 H253 M250 847 V853"/><path d="M247 900 H253 M250 897 V903"/><path d="M247 950 H253 M250 947 V953"/><path d="M247 1000 H253 M250 997 V1003"/><path d="M247 1050 H253 M250 1047 V1053"/><path d="M297 50 H303 M300 47 V53"/><path d="M297 100 H303 M300 97 V103"/><path d="M297 150 H303 M300 147 V153"/><path d="M297 200 H303 M300 197 V203"/><path d="M297 250 H303 M300 247 V253"/><path d="M297 300 H303 M300 297 V303"/><path d="M297 350 H303 M300 347 V353"/><path d="M297 400 H303 M300 397 V403"/><path d="M297 450 H303 M300 447 V453"/><path d="M297 500 H303 M300 497 V503"/><path d="M297 550 H303 M300 547 V553"/><path d="M297 600 H303 M300 597 V603"/><path d="M297 650 H303 M300 647 V653"/><path d="M297 700 H303 M300 697 V703"/><path d="M297 750 H303 M300 747 V753"/><path d="M297 800 H303 M300 797 V803"/><path d="M297 850 H303 M300 847 V853"/><path d="M297 900 H303 M300 897 V903"/><path d="M297 950 H303 M300 947 V953"/><path d="M297 1000 H303 M300 997 V1003"/><path d="M297 1050 H303 M300 1047 V1053"/><path d="M347 50 H353 M350 47 V53"/><path d="M347 100 H353 M350 97 V103"/><path d="M347 150 H353 M350 147 V153"/><path d="M347 200 H353 M350 197 V203"/><path d="M347 250 H353 M350 247 V253"/><path d="M347 300 H353 M350 297 V303"/><path d="M347 350 H353 M350 347 V353"/><path d="M347 400 H353 M350 397 V403"/><path d="M347 450 H353 M350 447 V453"/><path d="M347 500 H353 M350 497 V503"/><path d="M347 550 H353 M350 547 V553"/><path d="M347 600 H353 M350 597 V603"/><path d="M347 650 H353 M350 647 V653"/><path d="M347 700 H353 M350 697 V703"/><path d="M347 750 H353 M350 747 V753"/><path d="M347 800 H353 M350 797 V803"/><path d="M347 850 H353 M350 847 V853"/><path d="M347 900 H353 M350 897 V903"/><path d="M347 950 H353 M350 947 V953"/><path d="M347 1000 H353 M350 997 V1003"/><path d="M347 1050 H353 M350 1047 V1053"/><path d="M397 50 H403 M400 47 V53"/><path d="M397 100 H403 M400 97 V103"/><path d="M397 150 H403 M400 147 V153"/><path d="M397 200 H403 M400 197 V203"/><path d="M397 250 H403 M400 247 V253"/><path d="M397 300 H403 M400 297 V303"/><path d="M397 350 H403 M400 347 V353"/><path d="M397 400 H403 M400 397 V403"/><path d="M397 450 H403 M400 447 V453"/><path d="M397 500 H403 M400 497 V503"/><path d="M397 550 H403 M400 547 V553"/><path d="M397 600 H403 M400 597 V603"/><path d="M397 650 H403 M400 647 V653"/><path d="M397 700 H403 M400 697 V703"/><path d="M397 750 H403 M400 747 V753"/><path d="M397 800 H403 M400 797 V803"/><path d="M397 850 H403 M400 847 V853"/><path d="M397 900 H403 M400 897 V903"/><path d="M397 950 H403 M400 947 V953"/><path d="M397 1000 H403 M400 997 V1003"/><path d="M397 1050 H403 M400 1047 V1053"/><path d="M447 50 H453 M450 47 V53"/><path d="M447 100 H453 M450 97 V103"/><path d="M447 150 H453 M450 147 V153"/><path d="M447 200 H453 M450 197 V203"/><path d="M447 250 H453 M450 247 V253"/><path d="M447 300 H453 M450 297 V303"/><path d="M447 350 H453 M450 347 V353"/><path d="M447 400 H453 M450 397 V403"/><path d="M447 450 H453 M450 447 V453"/><path d="M447 500 H453 M450 497 V503"/><path d="M447 550 H453 M450 547 V553"/><path d="M447 600 H453 M450 597 V603"/><path d="M447 650 H453 M450 647 V653"/><path d="M447 700 H453 M450 697 V703"/><path d="M447 750 H453 M450 747 V753"/><path d="M447 800 H453 M450 797 V803"/><path d="M447 850 H453 M450 847 V853"/><path d="M447 900 H453 M450 897 V903"/><path d="M447 950 H453 M450 947 V953"/><path d="M447 1000 H453 M450 997 V1003"/><path d="M447 1050 H453 M450 1047 V1053"/><path d="M497 50 H503 M500 47 V53"/><path d="M497 100 H503 M500 97 V103"/><path d="M497 150 H503 M500 147 V153"/><path d="M497 200 H503 M500 197 V203"/><path d="M497 250 H503 M500 247 V253"/><path d="M497 300 H503 M500 297 V303"/><path d="M497 350 H503 M500 347 V353"/><path d="M497 400 H503 M500 397 V403"/><path d="M497 450 H503 M500 447 V453"/><path d="M497 500 H503 M500 497 V503"/><path d="M497 550 H503 M500 547 V553"/><path d="M497 600 H503 M500 597 V603"/><path d="M497 650 H503 M500 647 V653"/><path d="M497 700 H503 M500 697 V703"/><path d="M497 750 H503 M500 747 V753"/><path d="M497 800 H503 M500 797 V803"/><path d="M497 850 H503 M500 847 V853"/><path d="M497 900 H503 M500 897 V903"/><path d="M497 950 H503 M500 947 V953"/><path d="M497 1000 H503 M500 997 V1003"/><path d="M497 1050 H503 M500 1047 V1053"/><path d="M547 50 H553 M550 47 V53"/><path d="M547 100 H553 M550 97 V103"/><path d="M547 150 H553 M550 147 V153"/><path d="M547 200 H553 M550 197 V203"/><path d="M547 250 H553 M550 247 V253"/><path d="M547 300 H553 M550 297 V303"/><path d="M547 350 H553 M550 347 V353"/><path d="M547 400 H553 M550 397 V403"/><path d="M547 450 H553 M550 447 V453"/><path d="M547 500 H553 M550 497 V503"/><path d="M547 550 H553 M550 547 V553"/><path d="M547 600 H553 M550 597 V603"/><path d="M547 650 H553 M550 647 V653"/><path d="M547 700 H553 M550 697 V703"/><path d="M547 750 H553 M550 747 V753"/><path d="M547 800 H553 M550 797 V803"/><path d="M547 850 H553 M550 847 V853"/><path d="M547 900 H553 M550 897 V903"/><path d="M547 950 H553 M550 947 V953"/><path d="M547 1000 H553 M550 997 V1003"/><path d="M547 1050 H553 M550 1047 V1053"/><path d="M597 50 H603 M600 47 V53"/><path d="M597 100 H603 M600 97 V103"/><path d="M597 150 H603 M600 147 V153"/><path d="M597 200 H603 M600 197 V203"/><path d="M597 250 H603 M600 247 V253"/><path d="M597 300 H603 M600 297 V303"/><path d="M597 350 H603 M600 347 V353"/><path d="M597 400 H603 M600 397 V403"/><path d="M597 450 H603 M600 447 V453"/><path d="M597 500 H603 M600 497 V503"/><path d="M597 550 H603 M600 547 V553"/><path d="M597 600 H603 M600 597 V603"/><path d="M597 650 H603 M600 647 V653"/><path d="M597 700 H603 M600 697 V703"/><path d="M597 750 H603 M600 747 V753"/><path d="M597 800 H603 M600 797 V803"/><path d="M597 850 H603 M600 847 V853"/><path d="M597 900 H603 M600 897 V903"/><path d="M597 950 H603 M600 947 V953"/><path d="M597 1000 H603 M600 997 V1003"/><path d="M597 1050 H603 M600 1047 V1053"/><path d="M647 50 H653 M650 47 V53"/><path d="M647 100 H653 M650 97 V103"/><path d="M647 150 H653 M650 147 V153"/><path d="M647 200 H653 M650 197 V203"/><path d="M647 250 H653 M650 247 V253"/><path d="M647 300 H653 M650 297 V303"/><path d="M647 350 H653 M650 347 V353"/><path d="M647 400 H653 M650 397 V403"/><path d="M647 450 H653 M650 447 V453"/><path d="M647 500 H653 M650 497 V503"/><path d="M647 550 H653 M650 547 V553"/><path d="M647 600 H653 M650 597 V603"/><path d="M647 650 H653 M650 647 V653"/><path d="M647 700 H653 M650 697 V703"/><path d="M647 750 H653 M650 747 V753"/><path d="M647 800 H653 M650 797 V803"/><path d="M647 850 H653 M650 847 V853"/><path d="M647 900 H653 M650 897 V903"/><path d="M647 950 H653 M650 947 V953"/><path d="M647 1000 H653 M650 997 V1003"/><path d="M647 1050 H653 M650 1047 V1053"/><path d="M697 50 H703 M700 47 V53"/><path d="M697 100 H703 M700 97 V103"/><path d="M697 150 H703 M700 147 V153"/><path d="M697 200 H703 M700 197 V203"/><path d="M697 250 H703 M700 247 V253"/><path d="M697 300 H703 M700 297 V303"/><path d="M697 350 H703 M700 347 V353"/><path d="M697 400 H703 M700 397 V403"/><path d="M697 450 H703 M700 447 V453"/><path d="M697 500 H703 M700 497 V503"/><path d="M697 550 H703 M700 547 V553"/><path d="M697 600 H703 M700 597 V603"/><path d="M697 650 H703 M700 647 V653"/><path d="M697 700 H703 M700 697 V703"/><path d="M697 750 H703 M700 747 V753"/><path d="M697 800 H703 M700 797 V803"/><path d="M697 850 H703 M700 847 V853"/><path d="M697 900 H703 M700 897 V903"/><path d="M697 950 H703 M700 947 V953"/><path d="M697 1000 H703 M700 997 V1003"/><path d="M697 1050 H703 M700 1047 V1053"/><path d="M747 50 H753 M750 47 V53"/><path d="M747 100 H753 M750 97 V103"/><path d="M747 150 H753 M750 147 V153"/><path d="M747 200 H753 M750 197 V203"/><path d="M747 250 H753 M750 247 V253"/><path d="M747 300 H753 M750 297 V303"/><path d="M747 350 H753 M750 347 V353"/><path d="M747 400 H753 M750 397 V403"/><path d="M747 450 H753 M750 447 V453"/><path d="M747 500 H753 M750 497 V503"/><path d="M747 550 H753 M750 547 V553"/><path d="M747 600 H753 M750 597 V603"/><path d="M747 650 H753 M750 647 V653"/><path d="M747 700 H753 M750 697 V703"/><path d="M747 750 H753 M750 747 V753"/><path d="M747 800 H753 M750 797 V803"/><path d="M747 850 H753 M750 847 V853"/><path d="M747 900 H753 M750 897 V903"/><path d="M747 950 H753 M750 947 V953"/><path d="M747 1000 H753 M750 997 V1003"/><path d="M747 1050 H753 M750 1047 V1053"/><path d="M797 50 H803 M800 47 V53"/><path d="M797 100 H803 M800 97 V103"/><path d="M797 150 H803 M800 147 V153"/><path d="M797 200 H803 M800 197 V203"/><path d="M797 250 H803 M800 247 V253"/><path d="M797 300 H803 M800 297 V303"/><path d="M797 350 H803 M800 347 V353"/><path d="M797 400 H803 M800 397 V403"/><path d="M797 450 H803 M800 447 V453"/><path d="M797 500 H803 M800 497 V503"/><path d="M797 550 H803 M800 547 V553"/><path d="M797 600 H803 M800 597 V603"/><path d="M797 650 H803 M800 647 V653"/><path d="M797 700 H803 M800 697 V703"/><path d="M797 750 H803 M800 747 V753"/><path d="M797 800 H803 M800 797 V803"/><path d="M797 850 H803 M800 847 V853"/><path d="M797 900 H803 M800 897 V903"/><path d="M797 950 H803 M800 947 V953"/><path d="M797 1000 H803 M800 997 V1003"/><path d="M797 1050 H803 M800 1047 V1053"/><path d="M847 50 H853 M850 47 V53"/><path d="M847 100 H853 M850 97 V103"/><path d="M847 150 H853 M850 147 V153"/><path d="M847 200 H853 M850 197 V203"/><path d="M847 250 H853 M850 247 V253"/><path d="M847 300 H853 M850 297 V303"/><path d="M847 350 H853 M850 347 V353"/><path d="M847 400 H853 M850 397 V403"/><path d="M847 450 H853 M850 447 V453"/><path d="M847 500 H853 M850 497 V503"/><path d="M847 550 H853 M850 547 V553"/><path d="M847 600 H853 M850 597 V603"/><path d="M847 650 H853 M850 647 V653"/><path d="M847 700 H853 M850 697 V703"/><path d="M847 750 H853 M850 747 V753"/><path d="M847 800 H853 M850 797 V803"/><path d="M847 850 H853 M850 847 V853"/><path d="M847 900 H853 M850 897 V903"/><path d="M847 950 H853 M850 947 V953"/><path d="M847 1000 H853 M850 997 V1003"/><path d="M847 1050 H853 M850 1047 V1053"/></g>
  <g fill="#2E3A87" fill-opacity="0.14">
    <circle cx="450" cy="462" r="150"/>
    <path d="M200 1100 a250 250 0 0 1 500 0 Z"/>
  </g>
  <text x="56" y="1044" font-family="ui-monospace, 'SF Mono', Menlo, monospace" font-size="26" letter-spacing="3" fill="#5B6472">PORTRAIT · UPLOAD IN STUDIO</text>
</svg>